<?xml version="1.0" standalone="no"?>
<!DOCTYPE svg PUBLIC "-//W3C//DTD SVG 20010904//EN"
 "http://www.w3.org/TR/2001/REC-SVG-20010904/DTD/svg10.dtd">
<svg version="1.0" xmlns="http://www.w3.org/2000/svg"
 width="512.000000pt" height="512.000000pt" viewBox="0 0 512.000000 512.000000"
 preserveAspectRatio="xMidYMid meet">

<g transform="translate(0.000000,512.000000) scale(0.100000,-0.100000)"
fill="#000000" stroke="none">
<path d="M1369 4720 c-42 -22 -94 -78 -117 -126 -16 -34 -35 -43 -48 -23 -13
21 -148 79 -185 79 -50 0 -114 -50 -148 -115 -14 -27 -27 -52 -28 -54 -1 -2
-26 6 -55 19 -34 15 -81 24 -134 28 -80 5 -83 4 -108 -22 -32 -35 -56 -105
-63 -186 l-5 -65 -102 0 c-84 0 -108 -4 -146 -22 -59 -29 -130 -99 -130 -128
0 -41 50 -179 109 -300 76 -154 162 -275 281 -395 116 -116 233 -200 389 -279
175 -89 225 -152 225 -281 0 -96 -26 -144 -141 -261 -214 -218 -344 -462 -403
-755 -26 -124 -38 -351 -21 -382 6 -12 35 -34 64 -49 45 -24 64 -28 137 -28
72 0 94 4 143 27 52 25 58 26 64 10 33 -98 89 -184 136 -208 26 -14 34 -14 80
1 61 20 121 54 160 90 l28 27 41 -42 c49 -49 82 -67 136 -76 34 -5 47 -2 85
24 24 17 65 54 91 83 l46 51 46 -42 c25 -23 60 -48 78 -55 32 -14 33 -16 39
-88 8 -92 34 -164 67 -189 33 -24 122 -48 183 -48 l47 0 0 -73 c0 -78 21 -157
47 -179 28 -23 131 -15 193 15 30 14 55 25 56 24 1 -1 15 -31 32 -67 17 -36
47 -82 67 -104 36 -38 37 -38 99 -34 43 2 80 12 114 30 l50 26 37 -54 c36 -52
97 -109 143 -133 46 -24 156 40 216 127 l28 42 45 -40 c77 -67 124 -85 230
-85 79 0 95 3 113 20 31 32 43 157 37 390 -5 212 -23 343 -73 538 -47 186 -22
303 86 400 60 54 141 87 213 87 29 0 102 -9 163 -20 256 -44 556 -51 759 -15
122 21 130 30 130 143 -1 103 -23 159 -92 230 l-42 45 58 57 c57 56 101 128
101 167 0 11 -14 39 -30 62 -32 44 -143 131 -167 131 -8 0 -13 3 -11 8 40 77
50 109 49 164 0 49 -4 65 -22 84 -30 32 -103 74 -154 90 -22 6 -39 16 -38 20
2 5 12 34 23 64 57 160 3 227 -173 218 l-84 -4 -2 52 c0 28 -11 80 -23 115
-29 80 -63 103 -153 104 -33 0 -74 -4 -91 -8 -30 -8 -31 -6 -37 26 -7 47 -50
134 -87 180 -27 31 -38 37 -71 37 -49 0 -122 -28 -182 -68 -25 -18 -48 -32
-51 -32 -3 0 -15 18 -26 40 -45 89 -148 160 -250 175 -57 8 -81 -9 -143 -103
-109 -164 -201 -399 -233 -591 -22 -139 -15 -414 15 -545 12 -50 21 -108 21
-130 -1 -80 -47 -167 -112 -212 l-37 -26 -78 67 c-158 136 -363 259 -665 399
-73 34 -133 94 -166 164 -23 48 -27 71 -27 142 0 130 14 152 219 354 220 217
358 392 447 568 40 80 38 103 -15 154 -66 62 -139 87 -247 82 l-86 -4 -6 75
c-6 80 -21 129 -57 174 -19 24 -28 27 -85 27 -54 0 -134 -18 -196 -44 -13 -6
-22 4 -39 38 -31 66 -103 126 -149 126 -40 -1 -133 -36 -178 -68 l-30 -21 -42
64 c-27 42 -57 74 -85 90 -50 30 -51 30 -97 5z m83 -160 c14 -23 34 -70 44
-106 25 -92 74 -122 111 -68 44 64 87 103 134 124 l51 21 24 -22 c26 -24 49
-88 59 -162 5 -35 13 -52 30 -63 33 -22 59 -11 92 39 37 54 81 79 145 81 64 1
66 -3 67 -158 1 -149 23 -171 122 -126 60 27 156 27 209 0 22 -11 40 -24 40
-29 0 -16 -98 -170 -170 -267 -43 -58 -151 -176 -260 -284 -111 -109 -196
-202 -209 -227 -69 -136 -66 -302 7 -437 37 -68 119 -148 183 -179 30 -14 103
-48 162 -76 60 -28 152 -76 205 -108 112 -66 310 -213 365 -270 l38 -39 -22
-28 c-40 -50 -94 -70 -198 -71 -79 -1 -95 -4 -107 -20 -19 -25 -18 -27 16
-125 17 -47 30 -106 30 -132 0 -46 -1 -47 -36 -54 -68 -13 -132 0 -168 35 -35
34 -75 40 -100 15 -13 -13 -15 -32 -10 -113 7 -107 -8 -161 -46 -161 -58 0
-124 24 -166 61 -51 44 -75 48 -104 19 -17 -17 -20 -34 -21 -102 0 -86 -15
-149 -36 -155 -16 -6 -107 79 -145 135 -24 35 -34 42 -62 42 -39 0 -53 -14
-62 -61 -10 -52 -28 -81 -79 -128 -46 -42 -46 -42 -73 -26 -36 23 -57 50 -88
110 -34 64 -52 85 -77 85 -27 0 -57 -28 -57 -53 0 -37 -31 -82 -77 -114 -80
-52 -88 -52 -118 7 -15 29 -35 86 -46 128 -28 110 -57 126 -125 71 -69 -56
-139 -82 -200 -76 -29 3 -58 8 -64 12 -26 16 1 268 45 420 70 240 188 434 380
620 83 80 119 143 136 239 10 51 10 81 1 128 -27 146 -100 231 -267 315 -162
81 -268 156 -375 263 -145 145 -258 324 -325 512 -31 87 -29 94 29 122 47 22
135 20 198 -4 62 -24 78 -25 102 -7 16 12 19 30 21 138 2 158 4 163 66 156 70
-9 125 -40 148 -86 12 -22 30 -41 43 -44 29 -8 66 16 72 46 21 109 30 140 50
169 18 26 29 33 51 31 46 -4 116 -53 145 -103 47 -80 104 -76 131 9 15 48 57
132 77 154 23 26 35 21 64 -23z m2059 -779 c53 -33 81 -74 103 -150 20 -68 31
-81 69 -81 23 0 42 11 72 39 42 41 150 111 171 111 7 0 25 -25 39 -55 28 -56
29 -79 10 -187 -6 -32 -4 -38 20 -54 26 -17 28 -17 100 21 40 20 94 40 119 42
45 6 46 5 62 -32 21 -52 21 -137 -1 -185 -17 -37 -17 -41 -1 -66 20 -29 44
-29 146 0 30 9 76 16 102 16 39 0 48 -3 48 -17 -1 -27 -36 -100 -75 -153 -40
-54 -44 -81 -16 -109 16 -16 29 -18 85 -14 57 5 72 2 121 -21 50 -25 55 -31
55 -60 0 -36 -41 -106 -89 -150 -35 -34 -41 -75 -14 -101 13 -13 27 -16 64
-11 26 4 59 2 75 -4 36 -14 114 -78 114 -93 0 -24 -60 -85 -130 -132 -104 -72
-105 -101 -5 -163 74 -47 115 -102 122 -166 6 -51 10 -50 -147 -66 -183 -19
-382 -9 -612 30 -145 25 -220 25 -297 1 -84 -26 -137 -60 -199 -125 -123 -129
-148 -264 -93 -493 17 -71 38 -172 46 -224 18 -104 32 -460 21 -534 l-8 -47
-49 4 c-65 7 -122 46 -173 121 -35 50 -44 57 -73 57 -30 0 -37 -7 -88 -84 -30
-47 -69 -96 -86 -110 l-31 -26 -27 19 c-15 11 -40 39 -56 62 -24 34 -29 52
-30 101 0 47 -4 63 -19 74 -33 24 -56 16 -104 -35 -52 -55 -106 -91 -138 -91
-46 0 -87 80 -89 172 -1 50 -7 73 -20 88 -26 29 -47 25 -101 -20 -50 -41 -113
-76 -149 -82 -18 -3 -20 3 -23 50 -2 29 4 80 12 113 20 77 20 98 -1 121 -21
23 -44 23 -90 -2 -41 -22 -107 -26 -165 -10 -34 10 -37 14 -48 66 -14 67 -7
123 26 221 13 39 24 78 24 87 0 9 1 16 3 16 1 0 34 -7 72 -15 106 -22 148 -20
185 11 40 34 70 93 77 152 l5 48 68 -4 c85 -5 173 13 208 43 24 21 27 31 30
102 2 45 -3 100 -11 130 l-14 51 61 12 c69 13 118 36 166 77 42 35 90 110 90
140 0 16 19 42 60 79 118 110 152 239 111 420 -80 353 -18 718 172 1022 59 94
69 97 138 53z"/>
<path d="M1842 3655 c-34 -24 -109 -135 -147 -218 -139 -302 -87 -645 147
-959 84 -112 109 -129 147 -100 43 31 38 59 -24 136 -275 343 -302 724 -71
1020 25 33 46 67 46 76 0 20 -41 60 -61 60 -8 0 -24 -7 -37 -15z"/>
<path d="M966 3541 c-34 -38 -18 -71 59 -122 101 -67 206 -183 255 -283 59
-119 74 -189 74 -336 1 -132 -14 -218 -60 -352 -13 -40 -24 -82 -24 -94 0 -52
76 -75 104 -31 18 29 59 161 82 262 23 108 24 324 1 418 -54 219 -203 424
-381 527 -62 35 -86 37 -110 11z"/>
<path d="M3415 2886 c-18 -13 -20 -28 -21 -157 -1 -165 -13 -221 -74 -346 -75
-152 -232 -292 -425 -378 -89 -40 -105 -58 -90 -104 6 -21 38 -37 68 -32 31 4
130 52 217 104 113 68 259 214 317 317 82 147 120 308 110 470 -6 86 -9 97
-32 118 -30 26 -44 27 -70 8z"/>
<path d="M3865 2269 c-358 -67 -613 -331 -720 -748 -29 -112 -22 -144 31 -149
44 -4 59 15 79 100 81 340 274 572 550 658 47 15 108 24 183 27 100 5 115 8
127 27 20 28 19 52 -5 76 -17 17 -32 20 -107 19 -49 -1 -110 -5 -138 -10z"/>
</g>
</svg>
